<svg width="208" height="40" viewBox="0 0 208 40" fill="none" xmlns="http://www.w3.org/2000/svg">
<path d="M40 20C40 25.5228 37.7614 30.5228 34.1421 34.1421C30.5228 37.7614 25.5228 40 20 40C14.4772 40 9.47715 37.7614 5.85786 34.1421C2.23858 30.5228 0 25.5228 0 20C0 14.4772 2.23858 9.47715 5.85786 5.85786C9.47715 2.23858 14.4772 0 20 0C25.5228 0 30.5228 2.23858 34.1421 5.85786C37.7614 9.47715 40 14.4772 40 20Z" fill="#4D5AE5"/>
<g clip-path="url(#clip0_431671_2297)">
<path d="M31.9765 15.0561C31.9203 13.7809 31.7141 12.9042 31.4187 12.1445C31.1139 11.3381 30.6451 10.6162 30.0308 10.016C29.4307 9.40652 28.704 8.93292 27.9069 8.63294C27.1429 8.33753 26.2708 8.13131 24.9955 8.07509C23.7108 8.0141 23.303 8 20.0445 8C16.7861 8 16.3782 8.0141 15.0982 8.07033C13.823 8.12655 12.9463 8.33295 12.1868 8.62817C11.3803 8.93292 10.6583 9.40176 10.0582 10.016C9.4487 10.6162 8.97528 11.3429 8.67511 12.1399C8.3797 12.9042 8.17349 13.7761 8.11726 15.0513C8.05628 16.336 8.04218 16.7439 8.04218 20.0023C8.04218 23.2608 8.05628 23.6686 8.1125 24.9486C8.16873 26.2238 8.37513 27.1005 8.67053 27.8602C8.97528 28.6666 9.4487 29.3885 10.0582 29.9887C10.6583 30.5982 11.385 31.0718 12.1821 31.3718C12.9463 31.6672 13.8183 31.8734 15.0937 31.9296C16.3734 31.986 16.7815 31.9999 20.0399 31.9999C23.2984 31.9999 23.7062 31.986 24.9862 31.9296C26.2614 31.8734 27.1381 31.6672 27.8976 31.3718C29.5105 30.7482 30.7857 29.4729 31.4093 27.8602C31.7046 27.096 31.911 26.2238 31.9672 24.9486C32.0234 23.6686 32.0375 23.2608 32.0375 20.0023C32.0375 16.7439 32.0327 16.336 31.9765 15.0561ZM29.8153 24.8549C29.7636 26.027 29.5667 26.6599 29.4027 27.0819C28.9994 28.1274 28.1696 28.9572 27.124 29.3605C26.7021 29.5246 26.0645 29.7215 24.897 29.7729C23.6311 29.8293 23.2515 29.8433 20.0493 29.8433C16.847 29.8433 16.4626 29.8293 15.2013 29.7729C14.0292 29.7215 13.3963 29.5246 12.9743 29.3605C12.454 29.1682 11.9804 28.8634 11.596 28.4649C11.1975 28.0758 10.8928 27.6069 10.7005 27.0866C10.5364 26.6647 10.3395 26.027 10.288 24.8596C10.2316 23.5937 10.2177 23.2139 10.2177 20.0117C10.2177 16.8095 10.2316 16.425 10.288 15.1639C10.3395 13.9918 10.5364 13.3589 10.7005 12.9369C10.8928 12.4165 11.1975 11.943 11.6008 11.5584C11.9898 11.1599 12.4586 10.8552 12.9791 10.6631C13.4011 10.499 14.0388 10.3021 15.2061 10.2504C16.472 10.1942 16.8518 10.1801 20.0538 10.1801C23.2608 10.1801 23.6405 10.1942 24.9018 10.2504C26.0739 10.3021 26.7068 10.499 27.1288 10.6631C27.6491 10.8552 28.1227 11.1599 28.5071 11.5584C28.9056 11.9476 29.2104 12.4165 29.4027 12.9369C29.5667 13.3589 29.7636 13.9964 29.8153 15.1639C29.8715 16.4298 29.8856 16.8095 29.8856 20.0117C29.8856 23.2139 29.8715 23.589 29.8153 24.8549Z" fill="#F4F4FD"/>
<path d="M20.0445 13.8369C16.6409 13.8369 13.8793 16.5983 13.8793 20.0022C13.8793 23.406 16.6409 26.1674 20.0445 26.1674C23.4484 26.1674 26.2098 23.406 26.2098 20.0022C26.2098 16.5983 23.4484 13.8369 20.0445 13.8369ZM20.0445 24.0014C17.8364 24.0014 16.0453 22.2105 16.0453 20.0022C16.0453 17.7939 17.8364 16.0029 20.0445 16.0029C22.2529 16.0029 24.0438 17.7939 24.0438 20.0022C24.0438 22.2105 22.2529 24.0014 20.0445 24.0014Z" fill="#F4F4FD"/>
<path d="M27.893 13.5934C27.893 14.3882 27.2486 15.0327 26.4535 15.0327C25.6587 15.0327 25.0142 14.3882 25.0142 13.5934C25.0142 12.7983 25.6587 12.1541 26.4535 12.1541C27.2486 12.1541 27.893 12.7983 27.893 13.5934Z" fill="#F4F4FD"/>
</g>
<path d="M96 20C96 25.5228 93.7614 30.5228 90.1421 34.1421C86.5228 37.7614 81.5228 40 76 40C70.4772 40 65.4772 37.7614 61.8579 34.1421C58.2386 30.5228 56 25.5228 56 20C56 14.4772 58.2386 9.47715 61.8579 5.85786C65.4772 2.23858 70.4772 0 76 0C81.5228 0 86.5228 2.23858 90.1421 5.85786C93.7614 9.47715 96 14.4772 96 20Z" fill="#4D5AE5"/>
<g clip-path="url(#clip1_431671_2297)">
<path d="M88 12.5585C87.1075 12.95 86.1565 13.2095 85.165 13.3355C86.185 12.7265 86.9635 11.7695 87.3295 10.616C86.3785 11.183 85.3285 11.5835 84.2095 11.807C83.3065 10.8455 82.0195 10.25 80.6155 10.25C77.8915 10.25 75.6985 12.461 75.6985 15.1715C75.6985 15.5615 75.7315 15.9365 75.8125 16.2935C71.722 16.094 68.1025 14.1335 65.671 11.147C65.2465 11.8835 64.9975 12.7265 64.9975 13.634C64.9975 15.338 65.875 16.8485 67.183 17.723C66.3925 17.708 65.617 17.4785 64.96 17.117C64.96 17.132 64.96 17.1515 64.96 17.171C64.96 19.562 66.6655 21.548 68.902 22.0055C68.5015 22.115 68.065 22.1675 67.612 22.1675C67.297 22.1675 66.979 22.1495 66.6805 22.0835C67.318 24.032 69.127 25.4645 71.278 25.511C69.604 26.8205 67.4785 27.6095 65.1775 27.6095C64.774 27.6095 64.387 27.5915 64 27.542C66.1795 28.9475 68.7625 29.75 71.548 29.75C80.602 29.75 85.552 22.25 85.552 15.749C85.552 15.5315 85.5445 15.3215 85.534 15.113C86.5105 14.42 87.331 13.5545 88 12.5585Z" fill="#F4F4FD"/>
</g>
<path d="M152 20C152 25.5228 149.761 30.5228 146.142 34.1421C142.523 37.7614 137.523 40 132 40C126.477 40 121.477 37.7614 117.858 34.1421C114.239 30.5228 112 25.5228 112 20C112 14.4772 114.239 9.47715 117.858 5.85786C121.477 2.23858 126.477 0 132 0C137.523 0 142.523 2.23858 146.142 5.85786C149.761 9.47715 152 14.4772 152 20Z" fill="#4D5AE5"/>
<g clip-path="url(#clip2_431671_2297)">
<path d="M135.997 11.985H138.188V8.169C137.81 8.117 136.51 8 134.996 8C131.837 8 129.673 9.987 129.673 13.639V17H126.187V21.266H129.673V32H133.947V21.267H137.292L137.823 17.001H133.946V14.062C133.947 12.829 134.279 11.985 135.997 11.985Z" fill="#F4F4FD"/>
</g>
<path d="M208 20C208 25.5228 205.761 30.5228 202.142 34.1421C198.523 37.7614 193.523 40 188 40C182.477 40 177.477 37.7614 173.858 34.1421C170.239 30.5228 168 25.5228 168 20C168 14.4772 170.239 9.47715 173.858 5.85786C177.477 2.23858 182.477 0 188 0C193.523 0 198.523 2.23858 202.142 5.85786C205.761 9.47715 208 14.4772 208 20Z" fill="#4D5AE5"/>
<g clip-path="url(#clip3_431671_2297)">
<path d="M199.994 32V31.999H200V23.197C200 18.891 199.073 15.574 194.039 15.574C191.619 15.574 189.995 16.902 189.332 18.161H189.262V15.976H184.489V31.999H189.459V24.065C189.459 21.976 189.855 19.956 192.442 19.956C194.991 19.956 195.029 22.34 195.029 24.199V32H199.994Z" fill="#F4F4FD"/>
<path d="M176.396 15.9771H181.372V32H176.396V15.9771Z" fill="#F4F4FD"/>
<path d="M178.882 8C177.291 8 176 9.291 176 10.882C176 12.473 177.291 13.791 178.882 13.791C180.473 13.791 181.764 12.473 181.764 10.882C181.763 9.291 180.472 8 178.882 8V8Z" fill="#F4F4FD"/>
</g>
<defs>
<clipPath id="clip0_431671_2297">
<rect width="24" height="24" fill="white" transform="translate(8 8)"/>
</clipPath>
<clipPath id="clip1_431671_2297">
<rect width="24" height="24" fill="white" transform="translate(64 8)"/>
</clipPath>
<clipPath id="clip2_431671_2297">
<rect width="24" height="24" fill="white" transform="translate(120 8)"/>
</clipPath>
<clipPath id="clip3_431671_2297">
<rect width="24" height="24" fill="white" transform="translate(176 8)"/>
</clipPath>
</defs>
</svg>
